HIERARCHY
ROOT Hips
{
	OFFSET -3.958830 18.904000 13.208200
	CHANNELS 6 Xposition Yposition Zposition Zrotation Yrotation Xrotation 
	JOINT LHipJoint
	{
		OFFSET 0.000000 0.000000 0.000000
		CHANNELS 3 Zrotation Yrotation Xrotation
		JOINT LeftUpLeg
		{
			OFFSET 1.800000 -1.400000 0.085000
			CHANNELS 3 Zrotation Yrotation Xrotation
			JOINT LeftLeg
			{
				OFFSET 2.215000 -6.000000 0.000000
				CHANNELS 3 Zrotation Yrotation Xrotation
				JOINT LeftFoot
				{
					OFFSET 2.500000 -6.900000 0.000000
					CHANNELS 3 Zrotation Yrotation Xrotation
					JOINT LeftToeBase
					{
						OFFSET 0.200000 -0.500000 1.950000
						CHANNELS 3 Zrotation Yrotation Xrotation
						End Site
						{
							OFFSET 0.000000 0.000000 0.000000
						}
					}
				}
			}
		}
	}
	JOINT RHipJoint
	{
		OFFSET 0.000000 0.000000 0.000000
		CHANNELS 3 Zrotation Yrotation Xrotation
		JOINT RightUpLeg
		{
			OFFSET -1.800000 -1.400000 0.085000
			CHANNELS 3 Zrotation Yrotation Xrotation
			JOINT RightLeg
			{
				OFFSET -2.215000 -6.000000 0.000000
				CHANNELS 3 Zrotation Yrotation Xrotation
				JOINT RightFoot
				{
					OFFSET -2.500000 -6.900000 0.000000
					CHANNELS 3 Zrotation Yrotation Xrotation
					JOINT RightToeBase
					{
						OFFSET -0.200000 -0.500000 1.950000
						CHANNELS 3 Zrotation Yrotation Xrotation
						End Site
						{
							OFFSET 0.000000 0.000000 0.000000
						}
					}
				}
			}
		}
	}
	JOINT LowerBack
	{
		OFFSET 0.000000 0.000000 0.000000
		CHANNELS 3 Zrotation Yrotation Xrotation
		JOINT Spine
		{
			OFFSET -0.087000 1.940000 -0.288900
			CHANNELS 3 Zrotation Yrotation Xrotation
			JOINT Spine1
			{
				OFFSET 0.000000 1.950000 0.060000
				CHANNELS 3 Zrotation Yrotation Xrotation
				JOINT Neck
				{
					OFFSET 0.000000 0.000000 0.000000
					CHANNELS 3 Zrotation Yrotation Xrotation
					JOINT Neck1
					{
						OFFSET 0.000000 1.600000 0.340000
						CHANNELS 3 Zrotation Yrotation Xrotation
						JOINT Head
						{
							OFFSET 0.000000 1.667000 -0.240000
							CHANNELS 3 Zrotation Yrotation Xrotation
							End Site
							{
								OFFSET 0.000000 0.000000 0.000000
							}
						}
					}
				}
				JOINT LeftShoulder
				{
					OFFSET 0.000000 0.000000 0.000000
					CHANNELS 3 Zrotation Yrotation Xrotation
					JOINT LeftArm
					{
						OFFSET 2.700000 1.550000 -0.730000
						CHANNELS 3 Zrotation Yrotation Xrotation
						JOINT LeftForeArm
						{
							OFFSET 5.450000 0.000000 0.000000
							CHANNELS 3 Zrotation Yrotation Xrotation
							JOINT LeftHand
							{
								OFFSET 3.450000 0.000000 0.000000
								CHANNELS 3 Zrotation Yrotation Xrotation
								JOINT LeftHandIndex1
								{
									OFFSET 0.750000 0.000000 0.000000
									CHANNELS 3 Zrotation Yrotation Xrotation
									End Site
									{
										OFFSET 0.000000 0.000000 0.000000
									}
								}
							}
						}
					}
				}
				JOINT RightShoulder
				{
					OFFSET 0.000000 0.000000 0.000000
					CHANNELS 3 Zrotation Yrotation Xrotation
					JOINT RightArm
					{
						OFFSET -2.700000 1.550000 -0.730000
						CHANNELS 3 Zrotation Yrotation Xrotation
						JOINT RightForeArm
						{
							OFFSET -5.450000 0.000000 0.000000
							CHANNELS 3 Zrotation Yrotation Xrotation
							JOINT RightHand
							{
								OFFSET -3.450000 0.000000 0.000000
								CHANNELS 3 Zrotation Yrotation Xrotation
								JOINT RightHandIndex1
								{
									OFFSET -0.750000 0.000000 0.000000
									CHANNELS 3 Zrotation Yrotation Xrotation
									End Site
									{
										OFFSET 0.000000 0.000000 0.000000
									}
								}
							}
						}
					}
				}
			}
		}
	}
}
MOTION
Frames: 10
Frame Time: 0.016667
-7.357950 16.522070 6.864820 -3.552228 -8.045651 -0.580545 -14.738920 12.829003 3.128223 2.883212 -0.217059 -3.222520 -7.596509 4.564090 4.498139 -0.903188 3.997333 3.427030 0.864150 0.404910 0.431090 18.640001 -11.503098 3.175427 1.612065 -1.011921 -1.595732 1.680785 -4.473060 10.090306 -0.674401 -3.701227 3.501693 0.364360 0.180020 0.029210 -4.557419 -0.061418 -7.997604 13.088458 -0.512698 12.155657 -3.273660 1.159020 16.448913 -0.044028 -1.678138 -16.547091 -4.671882 -3.587909 42.585767 20.173040 -8.138180 -30.070030 -21.510601 -31.765582 10.211321 -42.435803 -15.575403 -6.652431 -25.755072 -53.199279 6.485264 -3.014368 2.824789 1.212380 -0.204580 0.130040 0.445840 22.130848 34.601312 13.662692 45.041062 23.894088 -7.878116 15.081058 42.791412 1.735307 1.418805 -1.336742 -0.454920 0.593450 -0.206360 -0.336120 
-7.364850 16.521670 6.860860 -3.314410 -6.123533 -0.952989 -14.748711 12.867514 3.116151 2.792808 -0.225630 -3.271868 -7.200174 4.522289 4.729975 -0.919757 3.981850 3.422431 0.866010 0.393560 0.433390 18.626380 -11.509979 3.155697 1.292702 -1.042743 -1.303055 1.482237 -4.489862 10.348398 -0.678960 -3.741239 3.476073 0.359220 0.173690 0.045000 -4.547785 -0.137801 -7.999904 13.057630 -0.615714 12.305191 -3.147350 1.040147 16.968837 -0.120539 -1.810624 -16.725144 -5.043132 -3.824342 42.512213 20.247390 -8.502840 -30.248780 -21.960093 -32.217605 10.167977 -41.648028 -16.260355 -6.787731 -23.644614 -53.962626 5.683847 -2.998311 2.844242 1.214280 -0.206610 0.126720 0.435400 22.771976 34.925308 14.182742 44.502243 23.771527 -9.092367 13.293905 44.480764 1.068258 1.369298 -1.366291 -0.446640 0.575580 -0.194190 -0.340900 
-7.372450 16.515250 6.857290 -2.935922 -4.017930 -1.107517 -14.758612 12.856078 3.098603 2.526749 -0.236438 -3.332010 -6.860479 4.438886 4.619875 -0.968659 3.989336 3.433832 0.842710 0.359280 0.410010 18.627953 -11.515929 3.103917 0.783279 -1.049533 -1.237150 1.429864 -4.516892 10.531041 -0.660219 -3.780635 3.466421 0.365010 0.215740 0.035080 -4.572390 -0.146646 -7.946186 12.965003 -0.677794 12.086461 -3.071826 0.903650 17.287101 -0.363852 -1.884319 -16.346022 -5.186255 -3.921783 41.602357 20.584920 -8.827190 -30.169830 -21.943091 -32.077850 9.862681 -41.241693 -17.283002 -6.405981 -22.372837 -54.399183 5.295926 -3.027844 2.809330 1.217370 -0.186850 0.093920 0.432590 23.249037 34.560107 14.199883 44.272696 23.911743 -9.631027 11.772065 45.645081 0.517572 1.329267 -1.355881 -0.484490 0.609710 -0.164410 -0.344410 
-7.382460 16.514190 6.855250 -2.475668 -2.159313 -1.414642 -14.780141 12.826231 3.095441 2.237830 -0.218245 -3.096734 -6.637887 4.348148 4.315525 -1.003684 3.983126 3.430521 0.873130 0.390260 0.428380 18.620231 -11.519783 3.054257 0.135165 -1.106088 -0.872927 1.339585 -4.534227 10.486047 -0.680623 -3.829384 3.433060 0.396800 0.207550 0.035340 -4.565751 -0.130800 -7.901800 12.671421 -0.531364 12.004654 -2.930244 1.004265 18.100802 -0.411027 -1.961827 -16.101267 -5.258794 -3.906864 40.798766 20.532910 -8.544920 -31.051800 -21.732613 -32.103657 9.562404 -40.942267 -18.471300 -6.296722 -20.576952 -55.010219 4.556791 -3.013616 2.805484 1.233990 -0.197350 0.100310 0.436300 23.224963 34.577117 14.386331 43.786371 24.028294 -10.569292 10.608866 47.307545 -0.056832 1.282774 -1.376138 -0.492890 0.620830 -0.167730 -0.352790 
-7.386330 16.506890 6.859120 -2.422596 0.127103 -1.399086 -14.762328 12.713450 3.047129 2.434789 -0.293470 -3.145363 -6.901311 4.317494 3.974842 -1.075444 4.060523 3.393779 0.901880 0.388970 0.455510 18.674079 -11.524951 2.988176 -0.129861 -1.123499 -0.734272 1.218232 -4.543028 10.612971 -0.683619 -3.898979 3.369610 0.433440 0.220830 0.057930 -4.714042 0.031920 -7.760277 13.516145 -0.678004 11.213972 -3.461355 0.833479 18.870477 -0.412418 -2.209459 -15.252514 -5.463988 -3.772403 38.677533 19.955960 -8.484950 -31.280140 -21.006770 -31.455144 9.052296 -41.349720 -19.962856 -5.686081 -19.294753 -55.515975 4.020355 -3.053373 2.813697 1.243860 -0.187350 0.077670 0.424180 22.522109 33.933639 13.961649 43.975437 24.237046 -10.811806 9.710866 48.832309 -0.497489 1.255713 -1.394633 -0.513200 0.624910 -0.143800 -0.372130 
-7.394690 16.502900 6.864630 -2.264787 2.636033 -1.089827 -14.765062 12.631042 3.006395 2.426699 -0.419404 -3.642339 -6.961481 4.236742 3.716477 -1.204528 4.135021 3.358651 0.880450 0.321780 0.430430 18.701683 -11.520620 2.920424 -0.380715 -1.074318 -0.868966 1.089495 -4.551945 10.779001 -0.647013 -3.968354 3.319088 0.451320 0.276950 0.076770 -4.797073 0.135261 -7.629334 13.903971 -0.663786 10.371971 -3.947649 0.814178 18.917677 -0.465860 -2.200768 -14.351449 -5.155653 -3.466589 36.263959 19.394460 -8.468640 -30.502000 -20.708453 -30.525967 8.506419 -41.353489 -20.924590 -4.755540 -19.680462 -56.183259 4.446817 -3.141252 2.828534 1.258940 -0.145920 0.009200 0.402560 22.280261 32.812999 13.374601 44.058917 23.749574 -10.797128 9.711239 50.658919 -0.487581 1.206474 -1.402550 -0.573240 0.638880 -0.067660 -0.404030 
-7.403480 16.500690 6.860570 -2.072970 5.204606 -0.921920 -14.770100 12.582273 2.984642 2.435850 -0.534034 -4.217397 -7.224072 4.240475 3.693078 -1.297309 4.192629 3.346007 0.851130 0.266410 0.432050 18.713639 -11.516188 2.877967 -0.616983 -1.073695 -0.846202 0.842980 -4.513609 10.713170 -0.618014 -3.997280 3.297592 0.464890 0.316360 0.063060 -4.855766 0.189429 -7.558344 14.379687 -0.686513 9.928405 -4.705489 0.902682 18.881974 -0.210940 -2.295458 -13.846452 -5.211321 -3.261684 34.951548 18.157210 -8.398790 -29.891260 -20.459443 -29.954657 8.119962 -40.817308 -21.598657 -4.154197 -20.051407 -56.842604 4.895764 -3.202917 2.788500 1.270620 -0.116360 -0.036570 0.378320 21.475858 32.244594 12.985041 43.993554 23.289527 -10.669601 9.920798 51.901567 -0.367851 1.188547 -1.377125 -0.637670 0.680630 -0.021430 -0.433920 
-7.413710 16.503600 6.854660 -1.975921 7.561688 -0.817378 -14.787489 12.564700 2.970646 2.441573 -0.623682 -4.610493 -7.189944 4.201363 3.464533 -1.418797 4.309812 3.363296 0.773040 0.131370 0.435600 18.710336 -11.483582 2.857388 -0.689767 -1.065269 -0.701360 0.576249 -4.469606 10.395291 -0.571185 -4.022335 3.308784 0.452710 0.413100 0.031650 -4.874223 0.156209 -7.517683 14.866355 -0.615050 9.547800 -5.149950 1.017975 18.815363 0.080949 -2.580167 -13.629701 -5.658559 -2.862305 34.079362 15.830950 -8.320780 -28.216740 -20.470033 -29.557606 7.853308 -39.864425 -21.686336 -3.757287 -21.112058 -57.701978 5.674727 -3.301818 2.668746 1.303880 -0.051690 -0.109560 0.357840 20.890100 31.956814 12.915024 43.021896 22.073573 -11.064517 10.798988 53.827415 0.043880 1.138725 -1.328547 -0.768220 0.781280 0.040970 -0.481270 
-7.429910 16.496580 6.854250 -1.613978 9.825957 -0.289550 -14.817180 12.560096 2.968808 2.217571 -0.746180 -5.308834 -7.290523 4.175202 3.354265 -1.449042 4.402406 3.374252 0.666590 -0.016120 0.391500 18.691215 -11.455908 2.803455 -1.062243 -0.955728 -1.059136 0.572701 -4.485167 10.432331 -0.495167 -4.078536 3.296179 0.399840 0.530020 0.077500 -4.853723 0.101220 -7.447595 14.876575 -0.343923 8.638271 -5.656259 1.225470 18.373632 0.340727 -2.625816 -13.425755 -5.652011 -2.294394 32.901735 12.587150 -8.166750 -24.017310 -20.444573 -28.873839 7.717084 -38.748199 -21.257120 -3.304948 -22.634545 -59.146220 6.926801 -3.460656 2.669112 1.238460 0.068600 -0.196230 0.333410 20.264159 31.228276 12.732308 42.883331 20.606137 -11.055442 11.227854 55.851362 0.297005 1.124614 -1.343626 -0.812210 0.786010 0.117330 -0.483460 
-7.448110 16.490900 6.853260 -1.262186 11.589510 -0.135712 -14.842240 12.578635 2.985600 2.025989 -0.814813 -5.455528 -7.227517 4.134943 3.113977 -1.502815 4.469896 3.356990 0.598820 -0.134130 0.381020 18.671169 -11.421575 2.771799 -1.368687 -0.909851 -0.945962 0.238678 -4.439234 10.340907 -0.443008 -4.117204 3.281716 0.365340 0.565100 0.080840 -4.830208 -0.010178 -7.427286 14.900644 -0.065963 8.339323 -6.183435 1.616415 18.160388 0.494893 -2.948733 -13.532802 -6.274313 -1.243842 32.648039 10.806600 -7.427400 -21.468700 -19.833763 -28.418516 7.660554 -37.536691 -20.589613 -3.386300 -23.453350 -60.873495 7.719902 -3.524705 2.687269 1.233280 0.117160 -0.260280 0.295180 19.307450 30.932774 12.835195 42.486855 19.113928 -11.498006 11.668889 58.179046 0.518224 1.103066 -1.357212 -0.867330 0.771530 0.174170 -0.524760 
